<?xml version="1.0" encoding="UTF-8" standalone="no"?>
<svg
   xmlns:dc="http://purl.org/dc/elements/1.1/"
   xmlns:cc="http://creativecommons.org/ns#"
   xmlns:rdf="http://www.w3.org/1999/02/22-rdf-syntax-ns#"
   xmlns:svg="http://www.w3.org/2000/svg"
   xmlns="http://www.w3.org/2000/svg"
   xmlns:sodipodi="http://sodipodi.sourceforge.net/DTD/sodipodi-0.dtd"
   xmlns:inkscape="http://www.inkscape.org/namespaces/inkscape"
   width="38.502903mm"
   height="38.502903mm"
   viewBox="0 0 38.502903 38.502903"
   version="1.1"
   id="svg8"
   inkscape:version="1.0.2 (e86c870879, 2021-01-15)"
   sodipodi:docname="logo.svg">
  <defs
     id="defs2" />
  <sodipodi:namedview
     id="base"
     pagecolor="#ffffff"
     bordercolor="#666666"
     borderopacity="1.0"
     inkscape:pageopacity="0.0"
     inkscape:pageshadow="2"
     inkscape:zoom="2.9203069"
     inkscape:cx="72.761389"
     inkscape:cy="72.761373"
     inkscape:document-units="mm"
     inkscape:current-layer="layer1"
     inkscape:document-rotation="0"
     showgrid="false"
     inkscape:window-width="1916"
     inkscape:window-height="1038"
     inkscape:window-x="0"
     inkscape:window-y="40"
     inkscape:window-maximized="0" />
  <metadata
     id="metadata5">
    <rdf:RDF>
      <cc:Work
         rdf:about="">
        <dc:format>image/svg+xml</dc:format>
        <dc:type
           rdf:resource="http://purl.org/dc/dcmitype/StillImage" />
        <dc:title></dc:title>
      </cc:Work>
    </rdf:RDF>
  </metadata>
  <g
     inkscape:label="Calque 1"
     inkscape:groupmode="layer"
     id="layer1"
     transform="translate(-81.724969,-593.32174)">
    <path
       id="path859"
       style="vector-effect:none;fill:#ffffff;fill-opacity:1;fill-rule:evenodd;stroke:none;stroke-width:0.168072;stroke-linecap:round;stroke-linejoin:miter;stroke-miterlimit:4;stroke-dasharray:none;stroke-dashoffset:0;stroke-opacity:1;paint-order:markers stroke fill"
       d="m 95.239389,597.85015 h -13.51442 v 21.03644 h 13.51442 c 2.345914,0 4.268416,1.743 4.552177,4.00957 h 2.369884 c 0.28376,-2.26657 2.20625,-4.00957 4.55217,-4.00957 h 13.51443 v -21.03644 h -13.51443 c -2.54272,0 -4.5899,2.04718 -5.73737,4.5899 -1.147477,-2.54272 -3.194142,-4.5899 -5.736861,-4.5899 z"
       sodipodi:nodetypes="sccsccsccscs" />
    <g
       id="g25068"
       transform="matrix(0.56023932,0,0,0.56023932,79.027662,425.69368)">
      <path
         style="opacity:1;vector-effect:none;fill:#08a2ff;fill-opacity:1;fill-rule:evenodd;stroke:none;stroke-width:1.13386;stroke-linecap:round;stroke-linejoin:miter;stroke-miterlimit:4;stroke-dasharray:none;stroke-dashoffset:0;stroke-opacity:1;paint-order:markers stroke fill"
         d="m -92.529297,922.30859 v 141.91601 h 91.1718751 c 15.8261739,0 28.7946509,11.7599 30.7089839,27.0508 0.154637,-1.2549 0.253907,-2.5278 0.253907,-3.8262 V 953.27344 c 0,-17.15388 -13.809015,-30.96485 -30.9628909,-30.96485 z"
         transform="matrix(0.26458333,0,0,0.26458333,29.296272,67.190475)"
         id="path25062"
         inkscape:connector-curvature="0"
         sodipodi:nodetypes="ccscsssc" />
      <path
         sodipodi:nodetypes="ccscsssc"
         inkscape:connector-curvature="0"
         id="path25064"
         d="m 73.540374,311.21795 v 37.54861 H 49.417815 c -4.187342,0 -7.618584,3.11148 -8.125085,7.15719 -0.04091,-0.33202 -0.06718,-0.66881 -0.06718,-1.01234 v -35.50067 c 0,-4.53863 3.653635,-8.19279 8.192265,-8.19279 z"
         style="opacity:1;vector-effect:none;fill:#08a2ff;fill-opacity:1;fill-rule:evenodd;stroke:none;stroke-width:0.3;stroke-linecap:round;stroke-linejoin:miter;stroke-miterlimit:4;stroke-dasharray:none;stroke-dashoffset:0;stroke-opacity:1;paint-order:markers stroke fill" />
      <path
         style="opacity:1;vector-effect:none;fill:#00598e;fill-opacity:1;fill-rule:evenodd;stroke:none;stroke-width:1.13386;stroke-linecap:round;stroke-linejoin:miter;stroke-miterlimit:4;stroke-dasharray:none;stroke-dashoffset:0;stroke-opacity:1;paint-order:markers stroke fill"
         d="m 29.351562,1091.2754 0.253907,-3.8262 V 953.27344 h 15.482422 v 134.17576 l 0.253906,3.8262 z"
         transform="matrix(0.26458333,0,0,0.26458333,29.296272,67.190475)"
         id="path25066"
         inkscape:connector-curvature="0"
         sodipodi:nodetypes="ccccccc" />
    </g>
  </g>
</svg>
