<?xml version="1.0" encoding="UTF-8" standalone="no"?>
<svg
   xmlns:dc="http://purl.org/dc/elements/1.1/"
   xmlns:cc="http://creativecommons.org/ns#"
   xmlns:rdf="http://www.w3.org/1999/02/22-rdf-syntax-ns#"
   xmlns:svg="http://www.w3.org/2000/svg"
   xmlns="http://www.w3.org/2000/svg"
   xmlns:sodipodi="http://sodipodi.sourceforge.net/DTD/sodipodi-0.dtd"
   xmlns:inkscape="http://www.inkscape.org/namespaces/inkscape"
   width="86.826836mm"
   height="86.826836mm"
   viewBox="0 0 86.826836 86.826836"
   version="1.1"
   id="svg8"
   inkscape:version="1.0.2 (e86c870879, 2021-01-15)"
   sodipodi:docname="logo-mouralif.svg">
  <defs
     id="defs2" />
  <sodipodi:namedview
     id="base"
     pagecolor="#ffffff"
     bordercolor="#666666"
     borderopacity="1.0"
     inkscape:pageopacity="0.0"
     inkscape:pageshadow="2"
     inkscape:zoom="0.33382838"
     inkscape:cx="-1158.3597"
     inkscape:cy="313.69171"
     inkscape:document-units="mm"
     inkscape:current-layer="layer1"
     inkscape:document-rotation="0"
     showgrid="false"
     inkscape:window-width="1916"
     inkscape:window-height="1038"
     inkscape:window-x="0"
     inkscape:window-y="40"
     inkscape:window-maximized="0" />
  <metadata
     id="metadata5">
    <rdf:RDF>
      <cc:Work
         rdf:about="">
        <dc:format>image/svg+xml</dc:format>
        <dc:type
           rdf:resource="http://purl.org/dc/dcmitype/StillImage" />
        <dc:title></dc:title>
      </cc:Work>
    </rdf:RDF>
  </metadata>
  <g
     inkscape:label="Calque 1"
     inkscape:groupmode="layer"
     id="layer1"
     transform="translate(-412.31601,-65.169068)">
    <g
       id="g5412"
       transform="matrix(0.60561135,0,0,0.60561135,533.54966,-202.57285)">
      <g
         transform="translate(-386.72925,275.97396)"
         id="g5400">
        <path
           id="path5376"
           transform="matrix(0.26458333,0,0,0.26458333,29.296272,67.190475)"
           d="m 785.26758,373.9375 c -4.89761,0.0476 -9.7241,2.5668 -12.25,6.45898 -23.84648,36.74525 -44.04406,130.47712 -43.16211,233.86719 V 755.39844 H 1000.6719 V 614.26367 c 0.8819,-103.39007 -19.31566,-197.12194 -43.16213,-233.86719 -4.4905,-6.91944 -16.25093,-9.49681 -22.75977,-1.57031 -10.70358,13.03491 -14.47909,35.97053 -20.4043,46.30274 -38.31061,-7.09607 -62.85964,-7.34223 -98.16406,0 -5.9252,-10.33221 -9.70071,-33.26783 -20.4043,-46.30274 -2.84761,-3.46784 -6.70051,-4.92569 -10.50976,-4.88867 z"
           style="fill:#000000;fill-opacity:1;fill-rule:evenodd;stroke:none;stroke-width:1px;stroke-linecap:butt;stroke-linejoin:miter;stroke-opacity:1"
           inkscape:connector-curvature="0" />
        <g
           id="g5382">
          <path
             style="opacity:1;vector-effect:none;fill:#fcffed;fill-opacity:1;fill-rule:evenodd;stroke:none;stroke-width:0.312345;stroke-linecap:round;stroke-linejoin:miter;stroke-miterlimit:4;stroke-dasharray:none;stroke-dashoffset:0;stroke-opacity:1;paint-order:markers stroke fill"
             id="path5378"
             sodipodi:type="arc"
             sodipodi:cx="242.77133"
             sodipodi:cy="199.98785"
             sodipodi:rx="8.4836578"
             sodipodi:ry="5.3887615"
             sodipodi:start="2.2526619"
             sodipodi:end="2.191929"
             sodipodi:open="true"
             sodipodi:arc-type="arc"
             d="m 237.42457,204.17168 a 8.4836578,5.3887615 0 0 1 -1.32035,-7.51614 8.4836578,5.3887615 0 0 1 11.81143,-0.9527 8.4836578,5.3887615 0 0 1 1.67901,7.48721 8.4836578,5.3887615 0 0 1 -11.76045,1.18005" />
          <path
             sodipodi:open="true"
             sodipodi:end="2.191929"
             sodipodi:start="2.2526619"
             sodipodi:ry="1.6883242"
             sodipodi:rx="3.8231072"
             sodipodi:cy="-242.77133"
             sodipodi:cx="199.98785"
             sodipodi:type="arc"
             id="path5380"
             style="opacity:1;vector-effect:none;fill:#000000;fill-opacity:1;fill-rule:evenodd;stroke:none;stroke-width:0.117364;stroke-linecap:round;stroke-linejoin:miter;stroke-miterlimit:4;stroke-dasharray:none;stroke-dashoffset:0;stroke-opacity:1;paint-order:markers stroke fill"
             transform="rotate(90)"
             sodipodi:arc-type="arc"
             d="m 197.57837,-241.46052 a 3.8231072,1.6883242 0 0 1 -0.59501,-2.35484 3.8231072,1.6883242 0 0 1 5.32275,-0.29849 3.8231072,1.6883242 0 0 1 0.75663,2.34578 3.8231072,1.6883242 0 0 1 -5.29977,0.36972" />
        </g>
        <g
           transform="translate(0.34931)"
           id="g5392">
          <path
             style="color:#000000;font-style:normal;font-variant:normal;font-weight:normal;font-stretch:normal;font-size:medium;line-height:normal;font-family:sans-serif;font-variant-ligatures:normal;font-variant-position:normal;font-variant-caps:normal;font-variant-numeric:normal;font-variant-alternates:normal;font-feature-settings:normal;text-indent:0;text-align:start;text-decoration:none;text-decoration-line:none;text-decoration-style:solid;text-decoration-color:#000000;letter-spacing:normal;word-spacing:normal;text-transform:none;writing-mode:lr-tb;direction:ltr;text-orientation:mixed;dominant-baseline:auto;baseline-shift:baseline;text-anchor:start;white-space:normal;shape-padding:0;clip-rule:nonzero;display:inline;overflow:visible;visibility:visible;opacity:1;isolation:auto;mix-blend-mode:normal;color-interpolation:sRGB;color-interpolation-filters:linearRGB;solid-color:#000000;solid-opacity:1;vector-effect:none;fill:#ffffff;fill-opacity:1;fill-rule:evenodd;stroke:none;stroke-width:2;stroke-linecap:round;stroke-linejoin:round;stroke-miterlimit:4;stroke-dasharray:none;stroke-dashoffset:0;stroke-opacity:1;paint-order:markers stroke fill;color-rendering:auto;image-rendering:auto;shape-rendering:auto;text-rendering:auto;enable-background:accumulate"
             d="m 254.95898,207.44384 c -0.95103,2.2e-4 -1.54541,0.67409 -1.07031,1.21345 l 2.92188,3.3143 c 0.47581,0.53928 1.66481,0.53928 2.14062,0 l 2.92383,-3.3143 c 0.4751,-0.53936 -0.11928,-1.21323 -1.07031,-1.21345 z"
             id="path5384"
             inkscape:connector-curvature="0"
             sodipodi:nodetypes="ccccccc" />
          <g
             id="g5390"
             transform="translate(0.437045)"
             style="fill:#ffffff;fill-opacity:1">
            <path
               style="color:#000000;font-style:normal;font-variant:normal;font-weight:normal;font-stretch:normal;font-size:medium;line-height:normal;font-family:sans-serif;font-variant-ligatures:normal;font-variant-position:normal;font-variant-caps:normal;font-variant-numeric:normal;font-variant-alternates:normal;font-feature-settings:normal;text-indent:0;text-align:start;text-decoration:none;text-decoration-line:none;text-decoration-style:solid;text-decoration-color:#000000;letter-spacing:normal;word-spacing:normal;text-transform:none;writing-mode:lr-tb;direction:ltr;text-orientation:mixed;dominant-baseline:auto;baseline-shift:baseline;text-anchor:start;white-space:normal;shape-padding:0;clip-rule:nonzero;display:inline;overflow:visible;visibility:visible;opacity:1;isolation:auto;mix-blend-mode:normal;color-interpolation:sRGB;color-interpolation-filters:linearRGB;solid-color:#000000;solid-opacity:1;vector-effect:none;fill:#ffffff;fill-opacity:1;fill-rule:evenodd;stroke:none;stroke-width:1;stroke-linecap:round;stroke-linejoin:round;stroke-miterlimit:4;stroke-dasharray:none;stroke-dashoffset:0;stroke-opacity:1;paint-order:markers stroke fill;color-rendering:auto;image-rendering:auto;shape-rendering:auto;text-rendering:auto;enable-background:accumulate"
               d="m 257.4375,210.00391 a 0.50005,0.50005 0 0 0 -0.49219,0.50586 v 7.86523 c 0,1.2445 -0.98596,2.23047 -2.23047,2.23047 h -0.36523 c -1.24451,0 -2.23047,-0.98597 -2.23047,-2.23047 a 0.50005,0.50005 0 1 0 -1,0 c 0,1.7812 1.44926,3.23047 3.23047,3.23047 h 0.36523 c 1.78122,0 3.23047,-1.44927 3.23047,-3.23047 v -7.86523 a 0.50005,0.50005 0 0 0 -0.50781,-0.50586 z"
               id="path5386"
               inkscape:connector-curvature="0" />
            <path
               style="color:#000000;font-style:normal;font-variant:normal;font-weight:normal;font-stretch:normal;font-size:medium;line-height:normal;font-family:sans-serif;font-variant-ligatures:normal;font-variant-position:normal;font-variant-caps:normal;font-variant-numeric:normal;font-variant-alternates:normal;font-feature-settings:normal;text-indent:0;text-align:start;text-decoration:none;text-decoration-line:none;text-decoration-style:solid;text-decoration-color:#000000;letter-spacing:normal;word-spacing:normal;text-transform:none;writing-mode:lr-tb;direction:ltr;text-orientation:mixed;dominant-baseline:auto;baseline-shift:baseline;text-anchor:start;white-space:normal;shape-padding:0;clip-rule:nonzero;display:inline;overflow:visible;visibility:visible;opacity:1;isolation:auto;mix-blend-mode:normal;color-interpolation:sRGB;color-interpolation-filters:linearRGB;solid-color:#000000;solid-opacity:1;vector-effect:none;fill:#ffffff;fill-opacity:1;fill-rule:evenodd;stroke:none;stroke-width:1;stroke-linecap:round;stroke-linejoin:round;stroke-miterlimit:4;stroke-dasharray:none;stroke-dashoffset:0;stroke-opacity:1;paint-order:markers stroke fill;color-rendering:auto;image-rendering:auto;shape-rendering:auto;text-rendering:auto;enable-background:accumulate"
               d="m 257.4375,210.00391 a 0.50005,0.50005 0 0 0 -0.49219,0.50586 v 7.86523 c 0,1.7812 1.44926,3.23047 3.23047,3.23047 h 0.36328 c 1.78122,0 3.23047,-1.44927 3.23047,-3.23047 a 0.50005,0.50005 0 1 0 -1,0 c 0,1.2445 -0.98596,2.23047 -2.23047,2.23047 h -0.36328 c -1.24451,0 -2.23047,-0.98597 -2.23047,-2.23047 v -7.86523 a 0.50005,0.50005 0 0 0 -0.50781,-0.50586 z"
               id="path5388"
               inkscape:connector-curvature="0" />
          </g>
        </g>
        <g
           transform="matrix(-1,0,0,1,516.46138,0)"
           id="g5398">
          <path
             sodipodi:open="true"
             sodipodi:end="2.191929"
             sodipodi:start="2.2526619"
             sodipodi:ry="5.3887615"
             sodipodi:rx="8.4836578"
             sodipodi:cy="199.98785"
             sodipodi:cx="242.77133"
             sodipodi:type="arc"
             id="path5394"
             style="opacity:1;vector-effect:none;fill:#fcffed;fill-opacity:1;fill-rule:evenodd;stroke:none;stroke-width:0.312345;stroke-linecap:round;stroke-linejoin:miter;stroke-miterlimit:4;stroke-dasharray:none;stroke-dashoffset:0;stroke-opacity:1;paint-order:markers stroke fill"
             sodipodi:arc-type="arc"
             d="m 237.42457,204.17168 a 8.4836578,5.3887615 0 0 1 -1.32035,-7.51614 8.4836578,5.3887615 0 0 1 11.81143,-0.9527 8.4836578,5.3887615 0 0 1 1.67901,7.48721 8.4836578,5.3887615 0 0 1 -11.76045,1.18005" />
          <path
             transform="rotate(90)"
             style="opacity:1;vector-effect:none;fill:#000000;fill-opacity:1;fill-rule:evenodd;stroke:none;stroke-width:0.117364;stroke-linecap:round;stroke-linejoin:miter;stroke-miterlimit:4;stroke-dasharray:none;stroke-dashoffset:0;stroke-opacity:1;paint-order:markers stroke fill"
             id="path5396"
             sodipodi:type="arc"
             sodipodi:cx="199.98785"
             sodipodi:cy="-242.77133"
             sodipodi:rx="3.8231072"
             sodipodi:ry="1.6883242"
             sodipodi:start="2.2526619"
             sodipodi:end="2.191929"
             sodipodi:open="true"
             sodipodi:arc-type="arc"
             d="m 197.57837,-241.46052 a 3.8231072,1.6883242 0 0 1 -0.59501,-2.35484 3.8231072,1.6883242 0 0 1 5.32275,-0.29849 3.8231072,1.6883242 0 0 1 0.75663,2.34578 3.8231072,1.6883242 0 0 1 -5.29977,0.36972" />
        </g>
      </g>
      <g
         transform="matrix(1.7571004,0,0,1.7571004,-197.33738,-33.042163)"
         id="g5410">
        <path
           sodipodi:nodetypes="ccscsssc"
           inkscape:connector-curvature="0"
           id="path5402"
           transform="matrix(0.26458333,0,0,0.26458333,29.296272,67.190475)"
           d="m -85.699864,922.30859 v 127.11891 h 84.3424421 c 15.8261739,0 28.7946509,11.7599 30.7089839,27.0508 0.154637,-1.2549 0.253907,-2.5278 0.253907,-3.8262 V 953.27344 c 0,-17.15388 -13.809015,-30.96485 -30.9628909,-30.96485 z"
           style="opacity:1;vector-effect:none;fill:#08a2ff;fill-opacity:1;fill-rule:evenodd;stroke:none;stroke-width:1.13386;stroke-linecap:round;stroke-linejoin:miter;stroke-miterlimit:4;stroke-dasharray:none;stroke-dashoffset:0;stroke-opacity:1;paint-order:markers stroke fill" />
        <path
           style="opacity:1;vector-effect:none;fill:#08a2ff;fill-opacity:1;fill-rule:evenodd;stroke:none;stroke-width:0.3;stroke-linecap:round;stroke-linejoin:miter;stroke-miterlimit:4;stroke-dasharray:none;stroke-dashoffset:0;stroke-opacity:1;paint-order:markers stroke fill"
           d="m 71.73342,311.21795 v 33.63354 H 49.417815 c -4.187342,0 -7.618584,3.11148 -8.125085,7.15719 -0.04091,-0.33202 -0.06718,-0.66881 -0.06718,-1.01234 v -31.5856 c 0,-4.53863 3.653635,-8.19279 8.192265,-8.19279 z"
           id="path5404"
           inkscape:connector-curvature="0"
           sodipodi:nodetypes="ccscsssc" />
        <path
           sodipodi:nodetypes="ccccccc"
           inkscape:connector-curvature="0"
           id="path5406"
           transform="matrix(0.26458333,0,0,0.26458333,29.296272,67.190475)"
           d="m 29.351562,1076.4783 0.253907,-3.8262 V 953.27344 h 15.482422 v 119.37866 l 0.253906,3.8262 z"
           style="opacity:1;vector-effect:none;fill:#00598e;fill-opacity:1;fill-rule:evenodd;stroke:none;stroke-width:1.13386;stroke-linecap:round;stroke-linejoin:miter;stroke-miterlimit:4;stroke-dasharray:none;stroke-dashoffset:0;stroke-opacity:1;paint-order:markers stroke fill" />
        <path
           sodipodi:nodetypes="ccsccsccscsc"
           inkscape:connector-curvature="0"
           transform="matrix(0.26458333,0,0,0.26458333,29.296272,67.190475)"
           id="path5408"
           d="m -77.959629,910.30859 -7.740235,12 h 84.3424421 c 17.1538759,0 30.9628909,13.81097 30.9628909,30.96485 h 15.482422 c 0,-17.15388 13.809013,-30.96485 30.96289,-30.96485 h 84.202559 l -7.6023,-12 H 68.308594 c -17.153877,0 -30.962891,13.81097 -30.962891,30.96485 0,-17.15388 -13.809013,-30.96485 -30.9628905,-30.96485 z"
           style="opacity:1;vector-effect:none;fill:#f2f2f2;fill-opacity:1;fill-rule:evenodd;stroke:none;stroke-width:1.13386;stroke-linecap:round;stroke-linejoin:miter;stroke-miterlimit:4;stroke-dasharray:none;stroke-dashoffset:0;stroke-opacity:1;paint-order:markers stroke fill" />
      </g>
    </g>
  </g>
</svg>
